<?xml version="1.0" encoding="UTF-8"?>
<!DOCTYPE svg PUBLIC "-//W3C//DTD SVG 1.1//EN" "http://www.w3.org/Graphics/SVG/1.1/DTD/svg11.dtd">
<svg xmlns="http://www.w3.org/2000/svg" version="1.1" width="2779px" height="2779px" style="shape-rendering:geometricPrecision; text-rendering:geometricPrecision; image-rendering:optimizeQuality; fill-rule:evenodd; clip-rule:evenodd" xmlns:xlink="http://www.w3.org/1999/xlink">
<g><path style="opacity:1" fill="#fefefe" d="M 2587.5,1791.5 C 2589.29,1790.69 2591.29,1790.19 2593.5,1790C 2588.65,1789.18 2583.98,1789.35 2579.5,1790.5C 2553.9,1790.57 2528.9,1786.73 2504.5,1779C 2482.05,1769.61 2461.71,1756.95 2443.5,1741C 2426.73,1726.23 2410.56,1710.73 2395,1694.5C 2365.86,1661.04 2337.86,1626.7 2311,1591.5C 2259.61,1521.11 2208.61,1450.45 2158,1379.5C 2131.47,1343.97 2103.81,1309.3 2075,1275.5C 2054.88,1254.36 2032.71,1235.86 2008.5,1220C 1984.82,1206.54 1960.48,1205.21 1935.5,1216C 1916.17,1227.33 1896.83,1238.67 1877.5,1250C 1839.59,1272.9 1801.59,1273.24 1763.5,1251C 1753.96,1244.72 1744.96,1237.72 1736.5,1230C 1698.89,1190.06 1662.39,1149.23 1627,1107.5C 1602.77,1080.26 1575.27,1057.09 1544.5,1038C 1529.65,1029.48 1513.82,1023.98 1497,1021.5C 1467.8,1026.26 1444.14,1040.26 1426,1063.5C 1402.36,1099.45 1382.36,1137.45 1366,1177.5C 1353.2,1215.59 1337.86,1252.59 1320,1288.5C 1306.99,1309.86 1292.99,1330.53 1278,1350.5C 1224.41,1411.89 1156.91,1448.06 1075.5,1459C 1059.25,1461.33 1042.92,1462.49 1026.5,1462.5C 994.668,1461.14 962.835,1459.81 931,1458.5C 890.474,1458.21 851.308,1465.37 813.5,1480C 778.189,1493.66 744.189,1509.99 711.5,1529C 685.56,1545.94 659.893,1563.28 634.5,1581C 588.035,1616.73 541.035,1651.73 493.5,1686C 424.217,1731 349.217,1763 268.5,1782C 237.102,1788.87 205.436,1791.7 173.5,1790.5C 173.18,1779.59 173.513,1768.75 174.5,1758C 196.909,1757.26 219.242,1755.59 241.5,1753C 255.553,1750.74 269.22,1747.07 282.5,1742C 304.345,1731.59 324.679,1718.92 343.5,1704C 370.867,1681.97 396.367,1657.8 420,1631.5C 436.667,1612.17 453.333,1592.83 470,1573.5C 522.096,1508.74 573.429,1443.41 624,1377.5C 639,1359.17 654,1340.83 669,1322.5C 691.167,1299 713.333,1275.5 735.5,1252C 746.747,1244.09 757.413,1235.42 767.5,1226C 794.772,1204.23 825.772,1190.56 860.5,1185C 888.076,1182.72 913.743,1188.72 937.5,1203C 956.853,1214.34 975.519,1226.67 993.5,1240C 1013.81,1253.1 1035.81,1262.1 1059.5,1267C 1066.97,1267.86 1074.3,1267.19 1081.5,1265C 1108.96,1255.61 1133.63,1241.61 1155.5,1223C 1165.97,1213.53 1176.14,1203.7 1186,1193.5C 1223.07,1152.09 1261.24,1111.59 1300.5,1072C 1314.94,1058.62 1329.94,1045.95 1345.5,1034C 1376.71,1011.92 1411.05,996.586 1448.5,988C 1492,979.502 1532.34,987.168 1569.5,1011C 1597.34,1029.49 1622.84,1050.99 1646,1075.5C 1675.79,1108.28 1704.46,1141.95 1732,1176.5C 1746.11,1193.44 1762.27,1207.94 1780.5,1220C 1793.57,1227.97 1807.73,1232.47 1823,1233.5C 1838.26,1231.96 1852.43,1227.12 1865.5,1219C 1884.84,1206.32 1904.84,1194.66 1925.5,1184C 1961.48,1169.24 1996.15,1171.91 2029.5,1192C 2047.6,1203.09 2064.27,1216.09 2079.5,1231C 2096.58,1248.69 2113.08,1266.86 2129,1285.5C 2169.55,1338.28 2208.89,1391.95 2247,1446.5C 2286.51,1500.86 2326.51,1554.86 2367,1608.5C 2393.02,1640.52 2420.52,1671.36 2449.5,1701C 2471.13,1720.49 2495.13,1736.49 2521.5,1749C 2531.54,1752.61 2541.88,1754.94 2552.5,1756C 2568.82,1757.08 2585.15,1757.58 2601.5,1757.5C 2602.14,1768.82 2602.47,1780.16 2602.5,1791.5C 2597.5,1791.5 2592.5,1791.5 2587.5,1791.5 Z"/></g>
<g><path style="opacity:1" fill="#f7f5f6" d="M 2579.5,1790.5 C 2583.98,1789.35 2588.65,1789.18 2593.5,1790C 2591.29,1790.19 2589.29,1790.69 2587.5,1791.5C 2584.72,1791.72 2582.05,1791.39 2579.5,1790.5 Z"/></g>
</svg>
